<?xml version="1.0" encoding="UTF-8"?>
<mxfile host="app.diagrams.net" agent="5.0 (Windows)" version="24.7.7">
  <diagram name="MCP Infrastructure - Ground Level" id="mcp-infrastructure">
    <mxGraphModel dx="1422" dy="786" grid="1" gridSize="10" guides="1" tooltips="1" connect="1" arrows="1" fold="1" page="1" pageScale="1" pageWidth="1169" pageHeight="827" math="0" shadow="0">
      <root>
        <mxCell id="0" />
        <mxCell id="1" parent="0" />

        <!-- Title -->
        <mxCell id="title" value="MCP Infrastructure &amp; Tool Routing&#xa;Ground Level (0 ft)" style="text;html=1;strokeColor=none;fillColor=none;align=center;verticalAlign=middle;whiteSpace=wrap;rounded=0;fontSize=20;fontStyle=1" vertex="1" parent="1">
          <mxGeometry x="334" y="30" width="500" height="60" as="geometry" />
        </mxCell>

        <!-- Central Composio Hub -->
        <mxCell id="composio-hub" value="Composio Integration Hub&#xa;Backend: composio-imo-creator-url.onrender.com&#xa;API Key: ak_t-F0AbvfZHUZSUrqAGNn" style="rounded=1;whiteSpace=wrap;html=1;fillColor=#d5e8d4;strokeColor=#82b366;fontSize=12;fontStyle=1" vertex="1" parent="1">
          <mxGeometry x="450" y="150" width="280" height="80" as="geometry" />
        </mxCell>

        <!-- MCP Servers -->
        <!-- GitHub MCP -->
        <mxCell id="github-mcp" value="GitHub MCP Server&#xa;Repository Management&#xa;Port: 7001" style="rounded=1;whiteSpace=wrap;html=1;fillColor=#fff2cc;strokeColor=#d6b656;fontSize=11" vertex="1" parent="1">
          <mxGeometry x="150" y="300" width="140" height="70" as="geometry" />
        </mxCell>

        <!-- Smartsheet MCP -->
        <mxCell id="smartsheet-mcp" value="Smartsheet MCP Server&#xa;Sheet Management&#xa;API Token: JpxP0x...6OJJoMi" style="rounded=1;whiteSpace=wrap;html=1;fillColor=#dae8fc;strokeColor=#6c8ebf;fontSize=11" vertex="1" parent="1">
          <mxGeometry x="330" y="300" width="140" height="70" as="geometry" />
        </mxCell>

        <!-- Firebase MCP -->
        <mxCell id="firebase-mcp" value="Firebase MCP Server&#xa;Database Operations&#xa;Admin SDK" style="rounded=1;whiteSpace=wrap;html=1;fillColor=#f8cecc;strokeColor=#b85450;fontSize=11" vertex="1" parent="1">
          <mxGeometry x="510" y="300" width="140" height="70" as="geometry" />
        </mxCell>

        <!-- Instantly MCP -->
        <mxCell id="instantly-mcp" value="Instantly.ai MCP&#xa;Email Campaigns&#xa;API Key: eaf2c37e..." style="rounded=1;whiteSpace=wrap;html=1;fillColor=#e1d5e7;strokeColor=#9673a6;fontSize=11" vertex="1" parent="1">
          <mxGeometry x="690" y="300" width="140" height="70" as="geometry" />
        </mxCell>

        <!-- HeyReach MCP -->
        <mxCell id="heyreach-mcp" value="HeyReach MCP&#xa;LinkedIn Automation&#xa;API Key: 30l4vmMc..." style="rounded=1;whiteSpace=wrap;html=1;fillColor=#ffcd28;strokeColor=#d79b00;fontSize=11" vertex="1" parent="1">
          <mxGeometry x="870" y="300" width="140" height="70" as="geometry" />
        </mxCell>

        <!-- Tool Categories -->
        <!-- Risk Management -->
        <mxCell id="risk-tools" value="_21RISK Toolkit&#xa;Risk Management &amp; Compliance&#xa;9 tools" style="ellipse;whiteSpace=wrap;html=1;fillColor=#fff2cc;strokeColor=#d6b656;fontSize=10" vertex="1" parent="1">
          <mxGeometry x="100" y="450" width="100" height="80" as="geometry" />
        </mxCell>

        <!-- Communication -->
        <mxCell id="chat-tools" value="_2CHAT Toolkit&#xa;WhatsApp Integration&#xa;5 tools" style="ellipse;whiteSpace=wrap;html=1;fillColor=#dae8fc;strokeColor=#6c8ebf;fontSize=10" vertex="1" parent="1">
          <mxGeometry x="250" y="450" width="100" height="80" as="geometry" />
        </mxCell>

        <!-- Real-time -->
        <mxCell id="ably-tools" value="ABLY Toolkit&#xa;Real-time Messaging&#xa;6 tools" style="ellipse;whiteSpace=wrap;html=1;fillColor=#f8cecc;strokeColor=#b85450;fontSize=10" vertex="1" parent="1">
          <mxGeometry x="400" y="450" width="100" height="80" as="geometry" />
        </mxCell>

        <!-- Visual Development -->
        <mxCell id="builder-tools" value="Builder.io&#xa;Visual Development&#xa;UI/UX Generation" style="ellipse;whiteSpace=wrap;html=1;fillColor=#e1d5e7;strokeColor=#9673a6;fontSize=10" vertex="1" parent="1">
          <mxGeometry x="550" y="450" width="100" height="80" as="geometry" />
        </mxCell>

        <!-- Neon Database -->
        <mxCell id="neon-db" value="Neon Database&#xa;Marketing Data Storage&#xa;render-marketing-db.onrender.com" style="rounded=1;whiteSpace=wrap;html=1;fillColor=#ffcd28;strokeColor=#d79b00;fontSize=11;fontStyle=1" vertex="1" parent="1">
          <mxGeometry x="750" y="450" width="180" height="80" as="geometry" />
        </mxCell>

        <!-- Data Flow Connections -->
        <!-- Composio to MCP Servers -->
        <mxCell id="hub-to-github" value="" style="endArrow=classic;html=1;rounded=0;exitX=0.1;exitY=1;exitDx=0;exitDy=0;entryX=0.5;entryY=0;entryDx=0;entryDy=0;" edge="1" parent="1" source="composio-hub" target="github-mcp">
          <mxGeometry width="50" height="50" relative="1" as="geometry">
            <mxPoint x="430" y="350" as="sourcePoint" />
            <mxPoint x="480" y="300" as="targetPoint" />
          </mxGeometry>
        </mxCell>

        <mxCell id="hub-to-smartsheet" value="" style="endArrow=classic;html=1;rounded=0;exitX=0.3;exitY=1;exitDx=0;exitDy=0;entryX=0.5;entryY=0;entryDx=0;entryDy=0;" edge="1" parent="1" source="composio-hub" target="smartsheet-mcp">
          <mxGeometry width="50" height="50" relative="1" as="geometry">
            <mxPoint x="478" y="240" as="sourcePoint" />
            <mxPoint x="230" y="310" as="targetPoint" />
          </mxGeometry>
        </mxCell>

        <mxCell id="hub-to-firebase" value="" style="endArrow=classic;html=1;rounded=0;exitX=0.5;exitY=1;exitDx=0;exitDy=0;entryX=0.5;entryY=0;entryDx=0;entryDy=0;" edge="1" parent="1" source="composio-hub" target="firebase-mcp">
          <mxGeometry width="50" height="50" relative="1" as="geometry">
            <mxPoint x="534" y="240" as="sourcePoint" />
            <mxPoint x="410" y="310" as="targetPoint" />
          </mxGeometry>
        </mxCell>

        <mxCell id="hub-to-instantly" value="" style="endArrow=classic;html=1;rounded=0;exitX=0.7;exitY=1;exitDx=0;exitDy=0;entryX=0.5;entryY=0;entryDx=0;entryDy=0;" edge="1" parent="1" source="composio-hub" target="instantly-mcp">
          <mxGeometry width="50" height="50" relative="1" as="geometry">
            <mxPoint x="600" y="240" as="sourcePoint" />
            <mxPoint x="590" y="310" as="targetPoint" />
          </mxGeometry>
        </mxCell>

        <mxCell id="hub-to-heyreach" value="" style="endArrow=classic;html=1;rounded=0;exitX=0.9;exitY=1;exitDx=0;exitDy=0;entryX=0.5;entryY=0;entryDx=0;entryDy=0;" edge="1" parent="1" source="composio-hub" target="heyreach-mcp">
          <mxGeometry width="50" height="50" relative="1" as="geometry">
            <mxPoint x="646" y="240" as="sourcePoint" />
            <mxPoint x="770" y="310" as="targetPoint" />
          </mxGeometry>
        </mxCell>

        <!-- MCP Servers to Tool Categories -->
        <mxCell id="github-to-risk" value="" style="endArrow=classic;html=1;rounded=0;exitX=0.25;exitY=1;exitDx=0;exitDy=0;entryX=0.5;entryY=0;entryDx=0;entryDy=0;" edge="1" parent="1" source="github-mcp" target="risk-tools">
          <mxGeometry width="50" height="50" relative="1" as="geometry">
            <mxPoint x="702" y="240" as="sourcePoint" />
            <mxPoint x="950" y="310" as="targetPoint" />
          </mxGeometry>
        </mxCell>

        <mxCell id="smartsheet-to-chat" value="" style="endArrow=classic;html=1;rounded=0;exitX=0.25;exitY=1;exitDx=0;exitDy=0;entryX=0.5;entryY=0;entryDx=0;entryDy=0;" edge="1" parent="1" source="smartsheet-mcp" target="chat-tools">
          <mxGeometry width="50" height="50" relative="1" as="geometry">
            <mxPoint x="185" y="380" as="sourcePoint" />
            <mxPoint x="160" y="460" as="targetPoint" />
          </mxGeometry>
        </mxCell>

        <mxCell id="firebase-to-ably" value="" style="endArrow=classic;html=1;rounded=0;exitX=0.25;exitY=1;exitDx=0;exitDy=0;entryX=0.5;entryY=0;entryDx=0;entryDy=0;" edge="1" parent="1" source="firebase-mcp" target="ably-tools">
          <mxGeometry width="50" height="50" relative="1" as="geometry">
            <mxPoint x="365" y="380" as="sourcePoint" />
            <mxPoint x="310" y="460" as="targetPoint" />
          </mxGeometry>
        </mxCell>

        <mxCell id="instantly-to-builder" value="" style="endArrow=classic;html=1;rounded=0;exitX=0.25;exitY=1;exitDx=0;exitDy=0;entryX=0.5;entryY=0;entryDx=0;entryDy=0;" edge="1" parent="1" source="instantly-mcp" target="builder-tools">
          <mxGeometry width="50" height="50" relative="1" as="geometry">
            <mxPoint x="545" y="380" as="sourcePoint" />
            <mxPoint x="460" y="460" as="targetPoint" />
          </mxGeometry>
        </mxCell>

        <mxCell id="heyreach-to-neon" value="" style="endArrow=classic;html=1;rounded=0;exitX=0.25;exitY=1;exitDx=0;exitDy=0;entryX=0.5;entryY=0;entryDx=0;entryDy=0;" edge="1" parent="1" source="heyreach-mcp" target="neon-db">
          <mxGeometry width="50" height="50" relative="1" as="geometry">
            <mxPoint x="725" y="380" as="sourcePoint" />
            <mxPoint x="610" y="460" as="targetPoint" />
          </mxGeometry>
        </mxCell>

        <!-- Environment Information -->
        <mxCell id="env-info" value="Environment Configuration:&#xa;• COMPOSIO_API_KEY: ak_t-F0AbvfZHUZSUrqAGNn&#xa;• COMPOSIO_BASE_URL: https://backend.composio.dev&#xa;• Timeout: 30000ms, Retries: 3&#xa;• Health Check: Enabled (30s interval)" style="text;html=1;strokeColor=#82b366;fillColor=#d5e8d4;align=left;verticalAlign=top;whiteSpace=wrap;rounded=1;fontSize=10" vertex="1" parent="1">
          <mxGeometry x="50" y="600" width="300" height="120" as="geometry" />
        </mxCell>

        <!-- Allowed Operations -->
        <mxCell id="operations-info" value="Key Operations Available:&#xa;• GitHub: Repos, Issues, PRs, Workflows&#xa;• Smartsheet: Sheets, Rows, Columns&#xa;• Firebase: Auth, Database, Storage&#xa;• Email/LinkedIn: Campaigns, Automation&#xa;• Risk: Compliance, Auditing" style="text;html=1;strokeColor=#6c8ebf;fillColor=#dae8fc;align=left;verticalAlign=top;whiteSpace=wrap;rounded=1;fontSize=10" vertex="1" parent="1">
          <mxGeometry x="400" y="600" width="300" height="120" as="geometry" />
        </mxCell>

        <!-- Rate Limits -->
        <mxCell id="limits-info" value="Rate Limits:&#xa;• GitHub: 5000 req/60min&#xa;• Smartsheet: 300 req/60s&#xa;• Composio: Managed globally&#xa;• MCP Health checks: 30s interval&#xa;• Auto-retry on failures" style="text;html=1;strokeColor=#b85450;fillColor=#f8cecc;align=left;verticalAlign=top;whiteSpace=wrap;rounded=1;fontSize=10" vertex="1" parent="1">
          <mxGeometry x="750" y="600" width="250" height="120" as="geometry" />
        </mxCell>

      </root>
    </mxGraphModel>
  </diagram>
</mxfile>